<?xml version="1.0" standalone="no"?>
<!DOCTYPE svg PUBLIC "-//W3C//DTD SVG 20010904//EN"
 "http://www.w3.org/TR/2001/REC-SVG-20010904/DTD/svg10.dtd">
<svg version="1.0" xmlns="http://www.w3.org/2000/svg"
 width="260.000000pt" height="260.000000pt" viewBox="0 0 260.000000 260.000000"
 preserveAspectRatio="xMidYMid meet">
<metadata>
Created by potrace 1.11, written by Peter Selinger 2001-2013
</metadata>
<g transform="translate(0.000000,260.000000) scale(0.100000,-0.100000)"
fill="#000000" stroke="none">
<path d="M1966 2398 c2 -115 3 -208 1 -208 -2 0 -25 27 -51 60 -26 33 -52 60
-57 60 -6 0 -8 -4 -5 -8 3 -5 7 -19 10 -33 3 -13 7 -33 10 -44 3 -11 8 -35 12
-52 l6 -32 -137 69 c-76 39 -140 68 -143 65 -5 -4 137 -177 151 -183 23 -11
-1 -19 -50 -17 -32 2 -143 6 -248 10 -104 4 -193 9 -197 11 -4 2 -9 0 -12 -5
-5 -8 49 -24 159 -47 11 -2 45 -10 75 -17 l55 -12 -40 -24 c-22 -13 -66 -46
-97 -73 -49 -42 -60 -47 -81 -39 -14 6 -56 9 -95 7 -76 -3 -128 -27 -150 -68
-12 -22 -17 -23 -170 -24 -114 -1 -172 -6 -212 -18 -30 -9 -62 -18 -71 -20
-33 -9 -140 -57 -191 -87 -269 -158 -437 -449 -437 -760 0 -60 4 -123 9 -141
5 -18 12 -48 15 -66 3 -18 13 -54 21 -80 101 -295 332 -513 633 -594 105 -29
332 -30 441 -3 423 105 702 457 698 880 -2 174 -48 330 -139 477 -47 75 -48
77 -33 107 28 55 15 141 -30 196 l-23 29 21 17 c48 37 164 77 180 62 3 -3 -17
-35 -45 -71 -27 -36 -47 -67 -45 -70 3 -2 33 14 66 38 34 23 63 40 65 38 2 -2
-24 -70 -56 -152 -33 -82 -58 -150 -56 -153 3 -2 22 18 43 44 22 26 41 50 44
53 3 3 48 58 100 124 l95 118 7 -33 c4 -19 10 -65 13 -104 4 -38 9 -73 12 -78
2 -4 6 -30 8 -58 2 -28 6 -63 9 -78 3 -14 8 -50 11 -80 8 -69 13 -92 20 -99 3
-3 5 1 6 9 3 48 20 198 25 224 3 11 7 61 10 110 2 50 7 96 9 103 3 8 36 -14
92 -62 48 -42 91 -76 96 -76 4 0 1 12 -7 28 -39 76 -117 245 -114 247 2 2 75
-12 162 -31 88 -19 164 -33 169 -31 5 1 -31 31 -82 66 -50 34 -91 64 -91 66 0
2 25 12 56 21 l55 18 -96 32 c-54 18 -99 35 -102 38 -3 2 8 11 24 19 15 9 66
36 113 61 47 25 109 58 138 73 28 15 52 30 52 34 0 4 -83 -14 -185 -41 -102
-26 -185 -44 -185 -39 0 5 23 43 50 85 28 42 50 80 50 85 0 13 -11 11 -29 -5
-14 -11 -128 -76 -135 -76 -1 0 -3 34 -4 77 -2 42 -6 81 -9 86 -6 10 -73 -124
-73 -146 0 -7 -3 -7 -9 -2 -6 6 -28 91 -51 190 -23 99 -46 187 -50 195 -5 8
-7 -76 -4 -192z"/>
</g>
</svg>
